# Blender v2.75 (sub 0) OBJ File: 'Cube_Test_Scene.blend'
# www.blender.org
mtllib Cube_Test_Scene.mtl
o Cube
v 1.000000 -1.000000 -1.000000
v 1.000000 -1.000000 1.000000
v -1.000000 -1.000000 1.000000
v -1.000000 -1.000000 -1.000000
v 1.000000 1.000000 -0.999999
v 0.999999 1.000000 1.000001
v -1.000000 1.000000 1.000000
v -1.000000 1.000000 -1.000000
vt 1.000000 0.000000
vt 1.000000 1.000000
vt 0.000000 1.000000
vt 0.000000 0.000000
vn 1.000000 0.000000 0.000000
vn -1.000000 -0.000000 -0.000000
vn -0.000000 0.000000 1.000000
vn 0.000000 0.000000 -1.000000
vn 0.000000 -1.000000 0.000000
vn 0.000000 1.000000 0.000000
usemtl Material
s off
f 5/1/1 6/2/1 2/3/1
f 3/4/2 7/1/2 8/2/2
f 1/4/1 5/1/1 2/3/1
f 4/3/2 3/4/2 8/2/2
usemtl Material.001
f 6/1/3 7/2/3 3/3/3
f 1/1/4 4/2/4 8/3/4
f 2/4/3 6/1/3 3/3/3
f 5/4/4 1/1/4 8/3/4
usemtl Material.002
f 2/1/5 3/2/5 4/3/5
f 8/1/6 7/2/6 6/3/6
f 1/4/5 2/1/5 4/3/5
f 5/4/6 8/1/6 6/3/6
