# Blender v2.75 (sub 0) OBJ File: 'Cassandra_Scene.blend'
# www.blender.org
mtllib TARDIS-light.mtl
o Cylinder.001_Cylinder.005
v -0.003200 -0.821411 31.062542
v -0.003200 -0.821411 33.462543
v -0.332308 -0.755948 31.062542
v -0.332308 -0.755948 33.462543
v -0.611312 -0.569523 31.062542
v -0.611312 -0.569523 33.462543
v -0.797737 -0.290519 31.062542
v -0.797737 -0.290519 33.462543
v -0.863200 0.038589 31.062542
v -0.863200 0.038589 33.462543
v -0.797737 0.367696 31.062542
v -0.797737 0.367696 33.462543
v -0.611312 0.646700 31.062542
v -0.611312 0.646700 33.462543
v -0.332308 0.833125 31.062542
v -0.332308 0.833125 33.462543
v -0.003200 0.898589 31.062542
v -0.003200 0.898589 33.462543
v 0.325907 0.833125 31.062542
v 0.325907 0.833125 33.462543
v 0.604912 0.646701 31.062542
v 0.604912 0.646701 33.462543
v 0.791336 0.367696 31.062542
v 0.791336 0.367696 33.462543
v 0.856800 0.038589 31.062542
v 0.856800 0.038589 33.462543
v 0.791336 -0.290519 31.062542
v 0.791336 -0.290519 33.462543
v 0.604911 -0.569524 31.062542
v 0.604911 -0.569524 33.462543
v 0.325907 -0.755948 31.062542
v 0.325907 -0.755948 33.462543
vt 0.086465 0.974371
vt 0.044432 0.849924
vt 0.302558 0.362001
vt 0.025629 0.736048
vt 0.302558 0.263952
vt 0.025629 0.637999
vt 0.283755 0.150076
vt 0.040006 0.561037
vt 0.241722 0.025629
vt 0.064335 0.510419
vt 0.167299 0.099113
vt 0.095460 0.483634
vt 0.117627 0.173867
vt 0.130227 0.478173
vt 0.089552 0.247380
vt 0.165480 0.491526
vt 0.079919 0.317142
vt 0.198066 0.521181
vt 0.085572 0.380643
vt 0.224829 0.564628
vt 0.103358 0.435372
vt 0.242615 0.619357
vt 0.130121 0.478819
vt 0.248269 0.682858
vt 0.162707 0.508474
vt 0.238635 0.752620
vt 0.197960 0.521826
vt 0.210560 0.826133
vt 0.232727 0.516365
vt 0.160888 0.900887
vt 0.263852 0.489581
vt 0.288181 0.438963
vn 0.000000 -1.000000 0.000000
vn -0.382700 -0.923900 0.000000
vn -0.707100 -0.707100 0.000000
vn -0.923900 -0.382700 0.000000
vn -1.000000 0.000000 0.000000
vn -0.923900 0.382700 0.000000
vn -0.707100 0.707100 0.000000
vn -0.382700 0.923900 0.000000
vn 0.000000 1.000000 0.000000
vn 0.382700 0.923900 0.000000
vn 0.707100 0.707100 0.000000
vn 0.923900 0.382700 0.000000
vn 1.000000 0.000000 0.000000
vn 0.923900 -0.382700 0.000000
vn 0.707100 -0.707100 0.000000
vn 0.382700 -0.923900 0.000000
usemtl Material.001
s 1
f 2/1/1 4/2/2 3/3/2
f 4/2/2 6/4/3 5/5/3
f 6/4/3 8/6/4 7/7/4
f 8/6/4 10/8/5 9/9/5
f 10/8/5 12/10/6 11/11/6
f 12/10/6 14/12/7 13/13/7
f 14/12/7 16/14/8 15/15/8
f 16/14/8 18/16/9 17/17/9
f 18/16/9 20/18/10 19/19/10
f 20/18/10 22/20/11 21/21/11
f 22/20/11 24/22/12 23/23/12
f 24/22/12 26/24/13 25/25/13
f 26/24/13 28/26/14 27/27/14
f 28/26/14 30/28/15 29/29/15
f 30/28/15 32/30/16 31/31/16
f 32/30/16 2/1/1 1/32/1
f 1/32/1 2/1/1 3/3/2
f 3/3/2 4/2/2 5/5/3
f 5/5/3 6/4/3 7/7/4
f 7/7/4 8/6/4 9/9/5
f 9/9/5 10/8/5 11/11/6
f 11/11/6 12/10/6 13/13/7
f 13/13/7 14/12/7 15/15/8
f 15/15/8 16/14/8 17/17/9
f 17/17/9 18/16/9 19/19/10
f 19/19/10 20/18/10 21/21/11
f 21/21/11 22/20/11 23/23/12
f 23/23/12 24/22/12 25/25/13
f 25/25/13 26/24/13 27/27/14
f 27/27/14 28/26/14 29/29/15
f 29/29/15 30/28/15 31/31/16
f 31/31/16 32/30/16 1/32/1
